<?xml version="1.0" encoding="utf-8"?>
<!-- Svg Vector Icons : http://www.onlinewebfonts.com/icon -->
<!DOCTYPE svg PUBLIC "-//W3C//DTD SVG 1.1//EN" "http://www.w3.org/Graphics/SVG/1.1/DTD/svg11.dtd">
<svg version="1.1" xmlns="http://www.w3.org/2000/svg" xmlns:xlink="http://www.w3.org/1999/xlink" x="0px" y="0px" viewBox="0 0 256 256" enable-background="new 0 0 256 256" xml:space="preserve">
<metadata> Svg Vector Icons : http://www.onlinewebfonts.com/icon </metadata>
<g><g><g><path fill="#000000" d="M75.6,10.4c-0.9,0.3-2.4,1.4-3.6,2.4c-3.1,3.2-3.8,7.1-1.9,11.1c0.6,1.2,13.6,25.2,28.8,53.1l27.8,50.9l-28.6,52.4c-15.7,28.9-28.7,53.1-28.9,54c-1.1,5.7,3.1,11,9.1,11.6c3,0.3,6.9-1.6,8.5-4c2.9-4.5,60.6-111,60.8-112.4c0.2-0.9,0.2-2.4,0-3.2C147.4,125,89.7,18.5,86.8,14C84.8,10.8,79.8,9.2,75.6,10.4z"/><path fill="#000000" d="M113.9,11.1c-4.1,2-6.2,6.6-5.1,10.8c0.3,1,13.2,25.2,28.8,53.8c15.6,28.6,28.4,52.1,28.4,52.3c0,0.2-12.8,23.7-28.4,52.3c-15.6,28.5-28.5,52.8-28.8,53.8c-1.1,4.2,1.1,8.8,5.1,10.8c3.9,1.9,8,1.4,11-1.6c1.2-1.2,10.5-17.8,31.9-57l30.2-55.3v-3v-3l-30.2-55.3c-21.2-38.8-30.7-55.9-31.9-57C121.9,9.8,117.8,9.2,113.9,11.1z"/></g></g></g>
</svg>