<?xml version="1.0" encoding="utf-8"?>
<!-- Svg Vector Icons : http://www.onlinewebfonts.com/icon -->
<!DOCTYPE svg PUBLIC "-//W3C//DTD SVG 1.1//EN" "http://www.w3.org/Graphics/SVG/1.1/DTD/svg11.dtd">
<svg version="1.1" xmlns="http://www.w3.org/2000/svg" xmlns:xlink="http://www.w3.org/1999/xlink" x="0px" y="0px" viewBox="0 0 256 256" enable-background="new 0 0 256 256" xml:space="preserve">
<metadata> Svg Vector Icons : http://www.onlinewebfonts.com/icon </metadata>
<g><g><g><path fill="#ffffff" d="M88.4,11.2c-2.5,1.2-5.7,4.3-6.7,6.5c-0.3,0.7-0.7,4.9-0.8,9.3l-0.2,8l-20.2,0.2c-19.9,0.2-20.2,0.2-22.4,1.4c-2.9,1.5-5.8,4.3-7.2,7.3c-1.1,2.2-1.2,2.9-1.3,13.8c-0.1,10.2,0,11.8,0.7,13.3c1,2,3.8,3.5,6.7,3.6c1.6,0,1.8,0.1,1.8,1.1c0,0.6,2.6,36.4,5.9,79.6c5.1,67.5,6,78.8,6.8,81c1.2,3.2,4.9,7.1,8,8.5l2.3,1.1l65.1,0.1c45.7,0.1,65.7,0,67.3-0.4c4.9-1.2,9.9-6.1,11.1-10.9c0.4-1.6,12.2-155.1,12.2-158.9c0-1,0.2-1.2,1.8-1.2c2.8,0,5.6-1.6,6.6-3.6c0.7-1.6,0.8-3.2,0.7-13.3c-0.1-11.4-0.1-11.6-1.5-13.9c-0.7-1.4-2.3-3.4-3.5-4.6c-4.1-3.8-3.4-3.6-26-3.9L175.4,35l-0.2-8c-0.1-4.4-0.5-8.6-0.8-9.3c-1-2.2-4.2-5.3-6.7-6.5l-2.4-1.2H128H90.8L88.4,11.2z M162.9,28.8l0.1,6.5h-35H93V29c0-3.4,0.1-6.4,0.3-6.6c0.1-0.2,15.8-0.3,34.8-0.2l34.5,0.1L162.9,28.8z M212.9,48.2c1,0.7,1.1,1.1,1.1,7.3V62h-86H42v-6.5c0-6.2,0-6.6,1.1-7.3c1-0.7,9.8-0.8,84.9-0.8C203.1,47.4,211.9,47.5,212.9,48.2z M204.9,76.2c-0.1,0.9-2.7,35.9-5.8,77.9c-3.1,41.9-5.8,76.8-6.1,77.5c-0.2,0.7-1,1.5-1.7,1.8c-1.7,0.8-124.9,0.8-126.7,0c-0.6-0.3-1.4-1.1-1.7-1.8c-0.2-0.7-3-35.5-6.1-77.3c-3.1-41.8-5.7-76.8-5.9-77.9l-0.2-1.8H128h77.2L204.9,76.2z"/><path fill="#ffffff" d="M85.8,103.9l-1.8,1.7l-0.1,46.7c-0.1,41.6,0,46.9,0.6,48.2c1.9,3.7,7.1,4.4,10.1,1.5l1.6-1.5l0.1-46.8c0.1-42.2,0-46.9-0.6-48.2c-1.1-2-3.1-3.1-5.8-3.1C88,102.3,87.4,102.6,85.8,103.9z"/><path fill="#ffffff" d="M123.6,104.2l-1.9,1.9v46.4c0,51.3-0.2,48.4,3.1,50.3c2,1.2,4.5,1.2,6.5,0c3.3-1.9,3.1,1,3.1-50.3v-46.4l-1.9-1.9c-1.7-1.7-2.1-1.9-4.4-1.9C125.7,102.3,125.3,102.5,123.6,104.2z"/><path fill="#ffffff" d="M162.4,103.1c-3,1.8-2.9-1.1-2.9,50.1v46.7l1.6,1.7c1.4,1.5,2,1.8,4,2c1.8,0.1,2.8,0,3.9-0.8c3.3-2,3.1,1,3-50.6l-0.1-46.7l-1.8-1.7c-1.6-1.4-2.2-1.7-4.1-1.7C164.7,102.3,163.1,102.7,162.4,103.1z"/></g></g></g>
</svg>