<?xml version="1.0" encoding="utf-8"?>
<!-- Svg Vector Icons : http://www.onlinewebfonts.com/icon -->
<!DOCTYPE svg PUBLIC "-//W3C//DTD SVG 1.1//EN" "http://www.w3.org/Graphics/SVG/1.1/DTD/svg11.dtd">
<svg version="1.1" xmlns="http://www.w3.org/2000/svg" xmlns:xlink="http://www.w3.org/1999/xlink" x="0px" y="0px" viewBox="0 0 256 256" enable-background="new 0 0 256 256" xml:space="preserve">
<metadata> Svg Vector Icons : http://www.onlinewebfonts.com/icon </metadata>
<g><g><path fill="#FFFFFF" d="M117.6,128l77.1-77.1c7.7-7.8,7.7-20.3,0-28.1l-7-7c-7.8-7.8-20.3-7.8-28.1,0l-90.7,90.8c-0.2,0.1-0.3,0.2-0.5,0.3l-7,7c-3.9,3.9-5.8,9-5.8,14.1c0,5.1,1.9,10.2,5.8,14.1l7,7c0.1,0.1,0.3,0.1,0.5,0.3l90.7,90.7c7.7,7.8,20.3,7.8,28,0l7-7c7.7-7.8,7.7-20.3,0-28.1L117.6,128z"/></g></g>
</svg>